<svg width="243" height="72" viewBox="0 0 243 72" fill="none" xmlns="http://www.w3.org/2000/svg">
<g filter="url(#filter0_d_7_4)">
<rect x="4" width="223" height="64" rx="32" fill="url(#paint0_linear_7_4)"/>
</g>
<g filter="url(#filter1_d_7_4)">
<path d="M96.041 41.1562C95.709 41.1562 95.403 41.0749 95.123 40.9121C94.8496 40.7493 94.6315 40.528 94.4688 40.248C94.306 39.9681 94.2246 39.6654 94.2246 39.3398C94.2246 39.1576 94.2572 38.959 94.3223 38.7441L98.082 27.8555C98.2969 27.224 98.681 26.7129 99.2344 26.3223C99.7878 25.9316 100.429 25.7363 101.158 25.7363C101.887 25.7363 102.529 25.9316 103.082 26.3223C103.642 26.7129 104.029 27.224 104.244 27.8555L108.004 38.7441C108.069 38.959 108.102 39.1576 108.102 39.3398C108.102 39.6654 108.02 39.9681 107.857 40.248C107.695 40.528 107.473 40.7493 107.193 40.9121C106.913 41.0749 106.607 41.1562 106.275 41.1562C105.872 41.1562 105.507 41.0391 105.182 40.8047C104.863 40.5638 104.648 40.2611 104.537 39.8965L103.883 37.7969H98.4434L97.7793 39.8965C97.6686 40.2611 97.4505 40.5638 97.125 40.8047C96.806 41.0391 96.4447 41.1562 96.041 41.1562ZM99.3809 34.8379H102.936L101.979 31.7812C101.907 31.5664 101.796 31.1855 101.646 30.6387C101.497 30.0918 101.373 29.6263 101.275 29.2422H101.041C100.963 29.5612 100.846 30.0104 100.689 30.5898C100.533 31.1628 100.416 31.5599 100.338 31.7812L99.3809 34.8379ZM113.619 41.2441C112.734 41.2441 111.933 41.0065 111.217 40.5312C110.501 40.0495 109.938 39.3626 109.527 38.4707C109.117 37.5788 108.912 36.5339 108.912 35.3359C108.912 34.3138 109.078 33.3893 109.41 32.5625C109.742 31.7357 110.243 31.0781 110.914 30.5898C111.591 30.1016 112.424 29.8574 113.414 29.8574C114.228 29.8574 114.889 30.0299 115.396 30.375C115.904 30.7201 116.298 31.1497 116.578 31.6641V27.6016C116.578 27.263 116.66 26.9538 116.822 26.6738C116.992 26.3874 117.219 26.1595 117.506 25.9902C117.792 25.821 118.102 25.7363 118.434 25.7363C118.772 25.7363 119.081 25.821 119.361 25.9902C119.648 26.1595 119.876 26.3874 120.045 26.6738C120.214 26.9538 120.299 27.263 120.299 27.6016V39.457C120.299 39.7695 120.221 40.056 120.064 40.3164C119.915 40.5768 119.71 40.7819 119.449 40.9316C119.189 41.0814 118.906 41.1562 118.6 41.1562C118.183 41.1562 117.812 41.0293 117.486 40.7754C117.161 40.5215 116.959 40.2025 116.881 39.8184C116.673 40.0723 116.441 40.3001 116.188 40.502C115.934 40.7038 115.592 40.8763 115.162 41.0195C114.739 41.1693 114.225 41.2441 113.619 41.2441ZM114.674 38.7441C115.273 38.7441 115.755 38.4902 116.119 37.9824C116.49 37.4746 116.676 36.6608 116.676 35.541C116.676 34.5124 116.49 33.7474 116.119 33.2461C115.755 32.7383 115.26 32.4844 114.635 32.4844C114.27 32.4844 113.938 32.5885 113.639 32.7969C113.346 32.9987 113.108 33.3275 112.926 33.7832C112.743 34.2389 112.652 34.8249 112.652 35.541C112.652 36.2637 112.743 36.8659 112.926 37.3477C113.108 37.8229 113.352 38.1745 113.658 38.4023C113.964 38.6302 114.303 38.7441 114.674 38.7441ZM126.588 41.2441C125.702 41.2441 124.902 41.0065 124.186 40.5312C123.469 40.0495 122.906 39.3626 122.496 38.4707C122.086 37.5788 121.881 36.5339 121.881 35.3359C121.881 34.3138 122.047 33.3893 122.379 32.5625C122.711 31.7357 123.212 31.0781 123.883 30.5898C124.56 30.1016 125.393 29.8574 126.383 29.8574C127.197 29.8574 127.857 30.0299 128.365 30.375C128.873 30.7201 129.267 31.1497 129.547 31.6641V27.6016C129.547 27.263 129.628 26.9538 129.791 26.6738C129.96 26.3874 130.188 26.1595 130.475 25.9902C130.761 25.821 131.07 25.7363 131.402 25.7363C131.741 25.7363 132.05 25.821 132.33 25.9902C132.617 26.1595 132.844 26.3874 133.014 26.6738C133.183 26.9538 133.268 27.263 133.268 27.6016V39.457C133.268 39.7695 133.189 40.056 133.033 40.3164C132.883 40.5768 132.678 40.7819 132.418 40.9316C132.158 41.0814 131.874 41.1562 131.568 41.1562C131.152 41.1562 130.781 41.0293 130.455 40.7754C130.13 40.5215 129.928 40.2025 129.85 39.8184C129.641 40.0723 129.41 40.3001 129.156 40.502C128.902 40.7038 128.561 40.8763 128.131 41.0195C127.708 41.1693 127.193 41.2441 126.588 41.2441ZM127.643 38.7441C128.242 38.7441 128.723 38.4902 129.088 37.9824C129.459 37.4746 129.645 36.6608 129.645 35.541C129.645 34.5124 129.459 33.7474 129.088 33.2461C128.723 32.7383 128.229 32.4844 127.604 32.4844C127.239 32.4844 126.907 32.5885 126.607 32.7969C126.314 32.9987 126.077 33.3275 125.895 33.7832C125.712 34.2389 125.621 34.8249 125.621 35.541C125.621 36.2637 125.712 36.8659 125.895 37.3477C126.077 37.8229 126.321 38.1745 126.627 38.4023C126.933 38.6302 127.271 38.7441 127.643 38.7441Z" fill="#EAF2FF"/>
</g>
<defs>
<filter id="filter0_d_7_4" x="0" y="0" width="231" height="72" filterUnits="userSpaceOnUse" color-interpolation-filters="sRGB">
<feFlood flood-opacity="0" result="BackgroundImageFix"/>
<feColorMatrix in="SourceAlpha" type="matrix" values="0 0 0 0 0 0 0 0 0 0 0 0 0 0 0 0 0 0 127 0" result="hardAlpha"/>
<feOffset dy="4"/>
<feGaussianBlur stdDeviation="2"/>
<feComposite in2="hardAlpha" operator="out"/>
<feColorMatrix type="matrix" values="0 0 0 0 0 0 0 0 0 0 0 0 0 0 0 0 0 0 0.25 0"/>
<feBlend mode="normal" in2="BackgroundImageFix" result="effect1_dropShadow_7_4"/>
<feBlend mode="normal" in="SourceGraphic" in2="effect1_dropShadow_7_4" result="shape"/>
</filter>
<filter id="filter1_d_7_4" x="90.2246" y="25.7363" width="47.043" height="24.5078" filterUnits="userSpaceOnUse" color-interpolation-filters="sRGB">
<feFlood flood-opacity="0" result="BackgroundImageFix"/>
<feColorMatrix in="SourceAlpha" type="matrix" values="0 0 0 0 0 0 0 0 0 0 0 0 0 0 0 0 0 0 127 0" result="hardAlpha"/>
<feOffset dy="5"/>
<feGaussianBlur stdDeviation="2"/>
<feComposite in2="hardAlpha" operator="out"/>
<feColorMatrix type="matrix" values="0 0 0 0 0 0 0 0 0 0 0 0 0 0 0 0 0 0 0.25 0"/>
<feBlend mode="normal" in2="BackgroundImageFix" result="effect1_dropShadow_7_4"/>
<feBlend mode="normal" in="SourceGraphic" in2="effect1_dropShadow_7_4" result="shape"/>
</filter>
<linearGradient id="paint0_linear_7_4" x1="4" y1="32" x2="227" y2="32" gradientUnits="userSpaceOnUse">
<stop offset="0.120192" stop-color="#87D0FF"/>
<stop offset="1" stop-color="#239DCA"/>
</linearGradient>
</defs>
</svg>
