<svg width="231" height="72" viewBox="0 0 231 72" fill="none" xmlns="http://www.w3.org/2000/svg">
<g filter="url(#filter0_d_7_5)">
<rect x="4" width="223" height="64" rx="32" fill="url(#paint0_linear_7_5)"/>
</g>
<g filter="url(#filter1_d_7_5)">
<path d="M62.7441 41C62.1908 41 61.7676 40.8568 61.4746 40.5703C61.1816 40.2773 61.0352 39.8542 61.0352 39.3008V27.6016C61.0352 27.0482 61.1816 26.6283 61.4746 26.3418C61.7676 26.0488 62.1908 25.9023 62.7441 25.9023H66.2207C67.7767 25.9023 69.1667 26.1562 70.3906 26.6641C71.6211 27.1654 72.6009 27.9792 73.3301 29.1055C74.0592 30.2253 74.4238 31.6641 74.4238 33.4219C74.4238 35.0755 74.0918 36.4688 73.4277 37.6016C72.7702 38.7344 71.8262 39.584 70.5957 40.1504C69.3717 40.7168 67.9134 41 66.2207 41H62.7441ZM66.2207 37.9629C67.1061 37.9629 67.8548 37.8229 68.4668 37.543C69.0853 37.263 69.5671 36.7845 69.9121 36.1074C70.2637 35.4303 70.4395 34.5156 70.4395 33.3633C70.4395 31.7943 70.0781 30.6615 69.3555 29.9648C68.6393 29.2682 67.5944 28.9199 66.2207 28.9199H64.8438V37.9629H66.2207ZM81.2402 41.2441C80.1465 41.2441 79.1634 41.0098 78.291 40.541C77.4251 40.0723 76.7448 39.4115 76.25 38.5586C75.7617 37.6992 75.5176 36.7064 75.5176 35.5801C75.5176 34.4733 75.7454 33.487 76.2012 32.6211C76.6634 31.7552 77.321 31.0781 78.1738 30.5898C79.0267 30.1016 80.0228 29.8574 81.1621 29.8574C82.2884 29.8574 83.265 30.0918 84.0918 30.5605C84.9186 31.0228 85.5469 31.6315 85.9766 32.3867C86.4062 33.1354 86.6211 33.9329 86.6211 34.7793C86.6211 35.3848 86.5007 35.8307 86.2598 36.1172C86.0189 36.3971 85.5924 36.5371 84.9805 36.5371H79.082C79.1536 37.1621 79.388 37.6667 79.7852 38.0508C80.1823 38.4284 80.6934 38.6172 81.3184 38.6172C81.696 38.6172 82.002 38.5586 82.2363 38.4414C82.4772 38.3177 82.7051 38.1517 82.9199 37.9434C83.0827 37.7806 83.2487 37.6536 83.418 37.5625C83.5938 37.4648 83.7956 37.416 84.0234 37.416C84.2904 37.416 84.5378 37.4844 84.7656 37.6211C85 37.7578 85.1823 37.9466 85.3125 38.1875C85.4492 38.4219 85.5176 38.679 85.5176 38.959C85.5176 39.4212 85.319 39.8216 84.9219 40.1602C84.5573 40.4661 84.0397 40.7233 83.3691 40.9316C82.7051 41.14 81.9954 41.2441 81.2402 41.2441ZM83.0371 34.3594C83.0111 33.7279 82.8223 33.2298 82.4707 32.8652C82.1191 32.5007 81.6634 32.3184 81.1035 32.3184C80.5436 32.3184 80.0879 32.5007 79.7363 32.8652C79.3848 33.2233 79.1732 33.7214 79.1016 34.3594H83.0371ZM89.9512 41.1562C89.6126 41.1562 89.3001 41.0749 89.0137 40.9121C88.7337 40.7428 88.5091 40.515 88.3398 40.2285C88.1706 39.9421 88.0859 39.6328 88.0859 39.3008V27.6016C88.0859 27.263 88.1706 26.9538 88.3398 26.6738C88.5091 26.3874 88.7337 26.1595 89.0137 25.9902C89.3001 25.821 89.6126 25.7363 89.9512 25.7363C90.2832 25.7363 90.5924 25.821 90.8789 25.9902C91.1654 26.1595 91.39 26.3874 91.5527 26.6738C91.722 26.9538 91.8066 27.263 91.8066 27.6016V39.3008C91.8066 39.6328 91.722 39.9421 91.5527 40.2285C91.3835 40.5085 91.1556 40.7331 90.8691 40.9023C90.5892 41.0716 90.2832 41.1562 89.9512 41.1562ZM99.0723 41.2441C97.9785 41.2441 96.9954 41.0098 96.123 40.541C95.2572 40.0723 94.5768 39.4115 94.082 38.5586C93.5938 37.6992 93.3496 36.7064 93.3496 35.5801C93.3496 34.4733 93.5775 33.487 94.0332 32.6211C94.4954 31.7552 95.153 31.0781 96.0059 30.5898C96.8587 30.1016 97.8548 29.8574 98.9941 29.8574C100.12 29.8574 101.097 30.0918 101.924 30.5605C102.751 31.0228 103.379 31.6315 103.809 32.3867C104.238 33.1354 104.453 33.9329 104.453 34.7793C104.453 35.3848 104.333 35.8307 104.092 36.1172C103.851 36.3971 103.424 36.5371 102.812 36.5371H96.9141C96.9857 37.1621 97.2201 37.6667 97.6172 38.0508C98.0143 38.4284 98.5254 38.6172 99.1504 38.6172C99.528 38.6172 99.834 38.5586 100.068 38.4414C100.309 38.3177 100.537 38.1517 100.752 37.9434C100.915 37.7806 101.081 37.6536 101.25 37.5625C101.426 37.4648 101.628 37.416 101.855 37.416C102.122 37.416 102.37 37.4844 102.598 37.6211C102.832 37.7578 103.014 37.9466 103.145 38.1875C103.281 38.4219 103.35 38.679 103.35 38.959C103.35 39.4212 103.151 39.8216 102.754 40.1602C102.389 40.4661 101.872 40.7233 101.201 40.9316C100.537 41.14 99.8275 41.2441 99.0723 41.2441ZM100.869 34.3594C100.843 33.7279 100.654 33.2298 100.303 32.8652C99.9512 32.5007 99.4954 32.3184 98.9355 32.3184C98.3757 32.3184 97.9199 32.5007 97.5684 32.8652C97.2168 33.2233 97.0052 33.7214 96.9336 34.3594H100.869ZM110.439 41.2441C109.58 41.2441 108.896 41.1009 108.389 40.8145C107.881 40.5215 107.516 40.0918 107.295 39.5254C107.074 38.959 106.963 38.2298 106.963 37.3379V32.5625H106.406C106.185 32.5625 105.98 32.5072 105.791 32.3965C105.602 32.2858 105.452 32.1361 105.342 31.9473C105.238 31.7585 105.186 31.5566 105.186 31.3418C105.186 30.9967 105.303 30.7038 105.537 30.4629C105.778 30.222 106.068 30.1016 106.406 30.1016H106.963V28.7246C106.963 28.1647 107.132 27.7415 107.471 27.4551C107.809 27.1621 108.245 27.0156 108.779 27.0156C109.313 27.0156 109.743 27.1621 110.068 27.4551C110.394 27.7415 110.557 28.1647 110.557 28.7246V30.1016H111.738C111.96 30.1016 112.165 30.1569 112.354 30.2676C112.542 30.3783 112.689 30.528 112.793 30.7168C112.904 30.8991 112.959 31.1009 112.959 31.3223C112.959 31.5436 112.904 31.7487 112.793 31.9375C112.689 32.1263 112.542 32.2793 112.354 32.3965C112.165 32.5072 111.96 32.5625 111.738 32.5625H110.645V37.0156C110.645 37.4062 110.703 37.7057 110.82 37.9141C110.944 38.1224 111.094 38.2656 111.27 38.3438C111.452 38.4219 111.683 38.487 111.963 38.5391C112.764 38.6888 113.164 39.1217 113.164 39.8379C113.164 40.3783 112.923 40.7493 112.441 40.9512C111.966 41.1465 111.299 41.2441 110.439 41.2441ZM119.619 41.2441C118.525 41.2441 117.542 41.0098 116.67 40.541C115.804 40.0723 115.124 39.4115 114.629 38.5586C114.141 37.6992 113.896 36.7064 113.896 35.5801C113.896 34.4733 114.124 33.487 114.58 32.6211C115.042 31.7552 115.7 31.0781 116.553 30.5898C117.406 30.1016 118.402 29.8574 119.541 29.8574C120.667 29.8574 121.644 30.0918 122.471 30.5605C123.298 31.0228 123.926 31.6315 124.355 32.3867C124.785 33.1354 125 33.9329 125 34.7793C125 35.3848 124.88 35.8307 124.639 36.1172C124.398 36.3971 123.971 36.5371 123.359 36.5371H117.461C117.533 37.1621 117.767 37.6667 118.164 38.0508C118.561 38.4284 119.072 38.6172 119.697 38.6172C120.075 38.6172 120.381 38.5586 120.615 38.4414C120.856 38.3177 121.084 38.1517 121.299 37.9434C121.462 37.7806 121.628 37.6536 121.797 37.5625C121.973 37.4648 122.174 37.416 122.402 37.416C122.669 37.416 122.917 37.4844 123.145 37.6211C123.379 37.7578 123.561 37.9466 123.691 38.1875C123.828 38.4219 123.896 38.679 123.896 38.959C123.896 39.4212 123.698 39.8216 123.301 40.1602C122.936 40.4661 122.419 40.7233 121.748 40.9316C121.084 41.14 120.374 41.2441 119.619 41.2441ZM121.416 34.3594C121.39 33.7279 121.201 33.2298 120.85 32.8652C120.498 32.5007 120.042 32.3184 119.482 32.3184C118.923 32.3184 118.467 32.5007 118.115 32.8652C117.764 33.2233 117.552 33.7214 117.48 34.3594H121.416ZM133.447 41.1562C133.102 41.1562 132.78 41.0716 132.48 40.9023C132.188 40.7266 131.953 40.4922 131.777 40.1992C131.608 39.9062 131.523 39.5872 131.523 39.2422V27.6016C131.523 27.0482 131.67 26.6283 131.963 26.3418C132.256 26.0488 132.679 25.9023 133.232 25.9023H137.705C138.864 25.9023 139.886 26.1074 140.771 26.5176C141.663 26.9212 142.354 27.5169 142.842 28.3047C143.337 29.0859 143.584 30.0234 143.584 31.1172C143.584 32.1849 143.34 33.1159 142.852 33.9102C142.37 34.7044 141.683 35.3164 140.791 35.7461C139.906 36.1693 138.87 36.3809 137.686 36.3809H135.371V39.2422C135.371 39.5872 135.283 39.9062 135.107 40.1992C134.938 40.4922 134.707 40.7266 134.414 40.9023C134.121 41.0716 133.799 41.1562 133.447 41.1562ZM137.148 33.4414C137.975 33.4414 138.623 33.2624 139.092 32.9043C139.567 32.5397 139.805 31.9635 139.805 31.1758C139.805 30.3815 139.567 29.7956 139.092 29.418C138.623 29.0339 137.982 28.8418 137.168 28.8418H135.371V33.4414H137.148ZM147.773 41.2441C147.09 41.2441 146.465 41.1172 145.898 40.8633C145.332 40.6029 144.883 40.2253 144.551 39.7305C144.219 39.2292 144.053 38.6335 144.053 37.9434C144.053 36.9603 144.329 36.2083 144.883 35.6875C145.443 35.1667 146.13 34.8216 146.943 34.6523C147.764 34.4831 148.682 34.3984 149.697 34.3984H151.055C151.055 33.9753 151.022 33.6335 150.957 33.373C150.892 33.1061 150.749 32.8945 150.527 32.7383C150.306 32.582 149.974 32.5039 149.531 32.5039C149.18 32.5039 148.896 32.5625 148.682 32.6797C148.473 32.7904 148.265 32.9499 148.057 33.1582C147.855 33.36 147.66 33.513 147.471 33.6172C147.288 33.7148 147.051 33.7637 146.758 33.7637C146.465 33.7637 146.195 33.6986 145.947 33.5684C145.706 33.4382 145.514 33.2591 145.371 33.0312C145.228 32.7969 145.156 32.5332 145.156 32.2402C145.156 31.7129 145.368 31.2702 145.791 30.9121C146.214 30.554 146.761 30.2904 147.432 30.1211C148.109 29.9453 148.822 29.8574 149.57 29.8574C151.224 29.8574 152.487 30.2122 153.359 30.9219C154.238 31.625 154.678 32.7708 154.678 34.3594V39.3789C154.678 39.6914 154.6 39.9844 154.443 40.2578C154.287 40.5312 154.072 40.7493 153.799 40.9121C153.525 41.0749 153.229 41.1562 152.91 41.1562C152.474 41.1562 152.093 41.0163 151.768 40.7363C151.449 40.4564 151.257 40.1048 151.191 39.6816C150.781 40.248 150.299 40.6517 149.746 40.8926C149.193 41.127 148.535 41.2441 147.773 41.2441ZM148.994 38.8809C149.43 38.8809 149.805 38.7799 150.117 38.5781C150.436 38.3698 150.674 38.0898 150.83 37.7383C150.993 37.3867 151.074 36.9928 151.074 36.5566V36.3809H149.893C148.428 36.3809 147.695 36.8268 147.695 37.7188C147.695 38.0833 147.816 38.3698 148.057 38.5781C148.304 38.7799 148.617 38.8809 148.994 38.8809ZM161.025 41.2441C160.166 41.2441 159.482 41.1009 158.975 40.8145C158.467 40.5215 158.102 40.0918 157.881 39.5254C157.66 38.959 157.549 38.2298 157.549 37.3379V32.5625H156.992C156.771 32.5625 156.566 32.5072 156.377 32.3965C156.188 32.2858 156.038 32.1361 155.928 31.9473C155.824 31.7585 155.771 31.5566 155.771 31.3418C155.771 30.9967 155.889 30.7038 156.123 30.4629C156.364 30.222 156.654 30.1016 156.992 30.1016H157.549V28.7246C157.549 28.1647 157.718 27.7415 158.057 27.4551C158.395 27.1621 158.831 27.0156 159.365 27.0156C159.899 27.0156 160.329 27.1621 160.654 27.4551C160.98 27.7415 161.143 28.1647 161.143 28.7246V30.1016H162.324C162.546 30.1016 162.751 30.1569 162.939 30.2676C163.128 30.3783 163.275 30.528 163.379 30.7168C163.49 30.8991 163.545 31.1009 163.545 31.3223C163.545 31.5436 163.49 31.7487 163.379 31.9375C163.275 32.1263 163.128 32.2793 162.939 32.3965C162.751 32.5072 162.546 32.5625 162.324 32.5625H161.23V37.0156C161.23 37.4062 161.289 37.7057 161.406 37.9141C161.53 38.1224 161.68 38.2656 161.855 38.3438C162.038 38.4219 162.269 38.487 162.549 38.5391C163.35 38.6888 163.75 39.1217 163.75 39.8379C163.75 40.3783 163.509 40.7493 163.027 40.9512C162.552 41.1465 161.885 41.2441 161.025 41.2441ZM167.021 41.1562C166.683 41.1562 166.37 41.0749 166.084 40.9121C165.804 40.7428 165.579 40.515 165.41 40.2285C165.241 39.9421 165.156 39.6328 165.156 39.3008V27.6016C165.156 27.263 165.241 26.9538 165.41 26.6738C165.579 26.3874 165.804 26.1595 166.084 25.9902C166.37 25.821 166.683 25.7363 167.021 25.7363C167.354 25.7363 167.663 25.821 167.949 25.9902C168.236 26.1595 168.46 26.3874 168.623 26.6738C168.792 26.9538 168.877 27.263 168.877 27.6016V31.7617C169.15 31.1953 169.557 30.7363 170.098 30.3848C170.638 30.0332 171.318 29.8574 172.139 29.8574C173.467 29.8574 174.437 30.2318 175.049 30.9805C175.667 31.7292 175.977 32.7676 175.977 34.0957V39.3008C175.977 39.6328 175.892 39.9421 175.723 40.2285C175.553 40.5085 175.326 40.7331 175.039 40.9023C174.759 41.0716 174.453 41.1562 174.121 41.1562C173.783 41.1562 173.47 41.0749 173.184 40.9121C172.904 40.7428 172.679 40.515 172.51 40.2285C172.34 39.9421 172.256 39.6328 172.256 39.3008V34.6816C172.256 33.9329 172.096 33.4121 171.777 33.1191C171.465 32.8262 171.1 32.6797 170.684 32.6797C170.195 32.6797 169.772 32.8587 169.414 33.2168C169.056 33.5684 168.877 34.2096 168.877 35.1406V39.3008C168.877 39.6328 168.792 39.9421 168.623 40.2285C168.454 40.5085 168.226 40.7331 167.939 40.9023C167.66 41.0716 167.354 41.1562 167.021 41.1562Z" fill="#EAF2FF"/>
</g>
<defs>
<filter id="filter0_d_7_5" x="0" y="0" width="231" height="72" filterUnits="userSpaceOnUse" color-interpolation-filters="sRGB">
<feFlood flood-opacity="0" result="BackgroundImageFix"/>
<feColorMatrix in="SourceAlpha" type="matrix" values="0 0 0 0 0 0 0 0 0 0 0 0 0 0 0 0 0 0 127 0" result="hardAlpha"/>
<feOffset dy="4"/>
<feGaussianBlur stdDeviation="2"/>
<feComposite in2="hardAlpha" operator="out"/>
<feColorMatrix type="matrix" values="0 0 0 0 0 0 0 0 0 0 0 0 0 0 0 0 0 0 0.25 0"/>
<feBlend mode="normal" in2="BackgroundImageFix" result="effect1_dropShadow_7_5"/>
<feBlend mode="normal" in="SourceGraphic" in2="effect1_dropShadow_7_5" result="shape"/>
</filter>
<filter id="filter1_d_7_5" x="57.0352" y="25.7363" width="122.941" height="24.5078" filterUnits="userSpaceOnUse" color-interpolation-filters="sRGB">
<feFlood flood-opacity="0" result="BackgroundImageFix"/>
<feColorMatrix in="SourceAlpha" type="matrix" values="0 0 0 0 0 0 0 0 0 0 0 0 0 0 0 0 0 0 127 0" result="hardAlpha"/>
<feOffset dy="5"/>
<feGaussianBlur stdDeviation="2"/>
<feComposite in2="hardAlpha" operator="out"/>
<feColorMatrix type="matrix" values="0 0 0 0 0 0 0 0 0 0 0 0 0 0 0 0 0 0 0.25 0"/>
<feBlend mode="normal" in2="BackgroundImageFix" result="effect1_dropShadow_7_5"/>
<feBlend mode="normal" in="SourceGraphic" in2="effect1_dropShadow_7_5" result="shape"/>
</filter>
<linearGradient id="paint0_linear_7_5" x1="4" y1="32" x2="227" y2="32" gradientUnits="userSpaceOnUse">
<stop offset="0.182692" stop-color="#239DCA"/>
<stop offset="1" stop-color="#6DAF5F"/>
</linearGradient>
</defs>
</svg>
