<svg width="238" height="72" viewBox="0 0 238 72" fill="none" xmlns="http://www.w3.org/2000/svg">
<g filter="url(#filter0_d_7_2)">
<rect x="4" width="223" height="64" rx="32" fill="url(#paint0_linear_7_2)"/>
</g>
<g filter="url(#filter1_d_7_2)">
<path d="M96.6016 40.3223C95.5078 40.3223 94.5215 40.1758 93.6426 39.8828C92.7637 39.5898 92.0768 39.209 91.582 38.7402C91.0872 38.2715 90.8398 37.7376 90.8398 37.1387C90.8398 36.8132 90.9212 36.5104 91.084 36.2305C91.2467 35.9505 91.4681 35.7292 91.748 35.5664C92.028 35.4036 92.3307 35.3223 92.6562 35.3223C92.9102 35.3223 93.138 35.3646 93.3398 35.4492C93.5482 35.5273 93.7272 35.6283 93.877 35.752C94.0332 35.8691 94.2155 36.0319 94.4238 36.2402C94.6777 36.4876 94.9023 36.6862 95.0977 36.8359C95.2995 36.9857 95.5469 37.1159 95.8398 37.2266C96.1393 37.3307 96.4876 37.3828 96.8848 37.3828C97.5944 37.3828 98.138 37.2331 98.5156 36.9336C98.8932 36.6341 99.082 36.237 99.082 35.7422C99.082 35.3581 98.9453 35.0358 98.6719 34.7754C98.4049 34.5085 97.9329 34.3034 97.2559 34.1602L94.8047 33.6426C93.3919 33.3431 92.3405 32.832 91.6504 32.1094C90.9603 31.3802 90.6152 30.4036 90.6152 29.1797C90.6152 28.3138 90.8529 27.5326 91.3281 26.8359C91.8099 26.1393 92.5033 25.5892 93.4082 25.1855C94.3197 24.7819 95.3971 24.5801 96.6406 24.5801C97.6432 24.5801 98.5384 24.707 99.3262 24.9609C100.114 25.2083 100.732 25.5404 101.182 25.957C101.663 26.4128 101.904 26.9271 101.904 27.5C101.904 27.819 101.836 28.112 101.699 28.3789C101.569 28.6458 101.383 28.8607 101.143 29.0234C100.908 29.1797 100.635 29.2578 100.322 29.2578C100.055 29.2578 99.8242 29.222 99.6289 29.1504C99.4401 29.0788 99.2773 28.9909 99.1406 28.8867C99.0039 28.7826 98.8411 28.6361 98.6523 28.4473C98.431 28.2324 98.2292 28.0599 98.0469 27.9297C97.8711 27.793 97.64 27.679 97.3535 27.5879C97.0671 27.4902 96.722 27.4414 96.3184 27.4414C95.9147 27.4414 95.5729 27.5065 95.293 27.6367C95.0195 27.7604 94.8145 27.9232 94.6777 28.125C94.5475 28.3268 94.4824 28.5449 94.4824 28.7793C94.4824 29.1829 94.6191 29.515 94.8926 29.7754C95.166 30.0293 95.6608 30.2311 96.377 30.3809L98.8184 30.8984C100.309 31.2174 101.393 31.7513 102.07 32.5C102.754 33.2487 103.096 34.209 103.096 35.3809C103.096 36.2923 102.878 37.1191 102.441 37.8613C102.005 38.6035 101.302 39.1992 100.332 39.6484C99.3685 40.0977 98.125 40.3223 96.6016 40.3223ZM108.604 40.2441C107.744 40.2441 107.061 40.1009 106.553 39.8145C106.045 39.5215 105.68 39.0918 105.459 38.5254C105.238 37.959 105.127 37.2298 105.127 36.3379V31.5625H104.57C104.349 31.5625 104.144 31.5072 103.955 31.3965C103.766 31.2858 103.617 31.1361 103.506 30.9473C103.402 30.7585 103.35 30.5566 103.35 30.3418C103.35 29.9967 103.467 29.7038 103.701 29.4629C103.942 29.222 104.232 29.1016 104.57 29.1016H105.127V27.7246C105.127 27.1647 105.296 26.7415 105.635 26.4551C105.973 26.1621 106.41 26.0156 106.943 26.0156C107.477 26.0156 107.907 26.1621 108.232 26.4551C108.558 26.7415 108.721 27.1647 108.721 27.7246V29.1016H109.902C110.124 29.1016 110.329 29.1569 110.518 29.2676C110.706 29.3783 110.853 29.528 110.957 29.7168C111.068 29.8991 111.123 30.1009 111.123 30.3223C111.123 30.5436 111.068 30.7487 110.957 30.9375C110.853 31.1263 110.706 31.2793 110.518 31.3965C110.329 31.5072 110.124 31.5625 109.902 31.5625H108.809V36.0156C108.809 36.4062 108.867 36.7057 108.984 36.9141C109.108 37.1224 109.258 37.2656 109.434 37.3438C109.616 37.4219 109.847 37.487 110.127 37.5391C110.928 37.6888 111.328 38.1217 111.328 38.8379C111.328 39.3783 111.087 39.7493 110.605 39.9512C110.13 40.1465 109.463 40.2441 108.604 40.2441ZM115.957 40.2441C115.273 40.2441 114.648 40.1172 114.082 39.8633C113.516 39.6029 113.066 39.2253 112.734 38.7305C112.402 38.2292 112.236 37.6335 112.236 36.9434C112.236 35.9603 112.513 35.2083 113.066 34.6875C113.626 34.1667 114.313 33.8216 115.127 33.6523C115.947 33.4831 116.865 33.3984 117.881 33.3984H119.238C119.238 32.9753 119.206 32.6335 119.141 32.373C119.076 32.1061 118.932 31.8945 118.711 31.7383C118.49 31.582 118.158 31.5039 117.715 31.5039C117.363 31.5039 117.08 31.5625 116.865 31.6797C116.657 31.7904 116.449 31.9499 116.24 32.1582C116.038 32.36 115.843 32.513 115.654 32.6172C115.472 32.7148 115.234 32.7637 114.941 32.7637C114.648 32.7637 114.378 32.6986 114.131 32.5684C113.89 32.4382 113.698 32.2591 113.555 32.0312C113.411 31.7969 113.34 31.5332 113.34 31.2402C113.34 30.7129 113.551 30.2702 113.975 29.9121C114.398 29.554 114.945 29.2904 115.615 29.1211C116.292 28.9453 117.005 28.8574 117.754 28.8574C119.408 28.8574 120.671 29.2122 121.543 29.9219C122.422 30.625 122.861 31.7708 122.861 33.3594V38.3789C122.861 38.6914 122.783 38.9844 122.627 39.2578C122.471 39.5312 122.256 39.7493 121.982 39.9121C121.709 40.0749 121.413 40.1562 121.094 40.1562C120.658 40.1562 120.277 40.0163 119.951 39.7363C119.632 39.4564 119.44 39.1048 119.375 38.6816C118.965 39.248 118.483 39.6517 117.93 39.8926C117.376 40.127 116.719 40.2441 115.957 40.2441ZM117.178 37.8809C117.614 37.8809 117.988 37.7799 118.301 37.5781C118.62 37.3698 118.857 37.0898 119.014 36.7383C119.176 36.3867 119.258 35.9928 119.258 35.5566V35.3809H118.076C116.611 35.3809 115.879 35.8268 115.879 36.7188C115.879 37.0833 115.999 37.3698 116.24 37.5781C116.488 37.7799 116.8 37.8809 117.178 37.8809ZM126.514 40.1562C126.175 40.1562 125.863 40.0749 125.576 39.9121C125.296 39.7428 125.072 39.515 124.902 39.2285C124.733 38.9421 124.648 38.6328 124.648 38.3008V30.6641C124.648 30.3516 124.727 30.0651 124.883 29.8047C125.039 29.5378 125.247 29.3262 125.508 29.1699C125.775 29.0137 126.061 28.9355 126.367 28.9355C126.686 28.9355 126.979 29.0137 127.246 29.1699C127.513 29.3262 127.725 29.5378 127.881 29.8047C128.037 30.0651 128.115 30.3516 128.115 30.6641V31.1426H128.193C128.467 30.3678 128.76 29.8079 129.072 29.4629C129.385 29.1113 129.798 28.9355 130.312 28.9355C130.729 28.9355 131.068 29.0234 131.328 29.1992C131.589 29.3685 131.774 29.5768 131.885 29.8242C131.995 30.0716 132.051 30.3158 132.051 30.5566C132.051 30.9408 131.911 31.276 131.631 31.5625C131.351 31.8424 130.97 32.0345 130.488 32.1387C129.805 32.3014 129.281 32.6335 128.916 33.1348C128.551 33.6296 128.369 34.2578 128.369 35.0195V38.3008C128.369 38.6328 128.285 38.9421 128.115 39.2285C127.946 39.5085 127.718 39.7331 127.432 39.9023C127.152 40.0716 126.846 40.1562 126.514 40.1562ZM137.744 40.2441C136.885 40.2441 136.201 40.1009 135.693 39.8145C135.186 39.5215 134.821 39.0918 134.6 38.5254C134.378 37.959 134.268 37.2298 134.268 36.3379V31.5625H133.711C133.49 31.5625 133.285 31.5072 133.096 31.3965C132.907 31.2858 132.757 31.1361 132.646 30.9473C132.542 30.7585 132.49 30.5566 132.49 30.3418C132.49 29.9967 132.607 29.7038 132.842 29.4629C133.083 29.222 133.372 29.1016 133.711 29.1016H134.268V27.7246C134.268 27.1647 134.437 26.7415 134.775 26.4551C135.114 26.1621 135.55 26.0156 136.084 26.0156C136.618 26.0156 137.048 26.1621 137.373 26.4551C137.699 26.7415 137.861 27.1647 137.861 27.7246V29.1016H139.043C139.264 29.1016 139.469 29.1569 139.658 29.2676C139.847 29.3783 139.993 29.528 140.098 29.7168C140.208 29.8991 140.264 30.1009 140.264 30.3223C140.264 30.5436 140.208 30.7487 140.098 30.9375C139.993 31.1263 139.847 31.2793 139.658 31.3965C139.469 31.5072 139.264 31.5625 139.043 31.5625H137.949V36.0156C137.949 36.4062 138.008 36.7057 138.125 36.9141C138.249 37.1224 138.398 37.2656 138.574 37.3438C138.757 37.4219 138.988 37.487 139.268 37.5391C140.068 37.6888 140.469 38.1217 140.469 38.8379C140.469 39.3783 140.228 39.7493 139.746 39.9512C139.271 40.1465 138.604 40.2441 137.744 40.2441Z" fill="#EAF2FF"/>
</g>
<defs>
<filter id="filter0_d_7_2" x="0" y="0" width="231" height="72" filterUnits="userSpaceOnUse" color-interpolation-filters="sRGB">
<feFlood flood-opacity="0" result="BackgroundImageFix"/>
<feColorMatrix in="SourceAlpha" type="matrix" values="0 0 0 0 0 0 0 0 0 0 0 0 0 0 0 0 0 0 127 0" result="hardAlpha"/>
<feOffset dy="4"/>
<feGaussianBlur stdDeviation="2"/>
<feComposite in2="hardAlpha" operator="out"/>
<feColorMatrix type="matrix" values="0 0 0 0 0 0 0 0 0 0 0 0 0 0 0 0 0 0 0.25 0"/>
<feBlend mode="normal" in2="BackgroundImageFix" result="effect1_dropShadow_7_2"/>
<feBlend mode="normal" in="SourceGraphic" in2="effect1_dropShadow_7_2" result="shape"/>
</filter>
<filter id="filter1_d_7_2" x="86.6152" y="24.5801" width="57.8535" height="24.7422" filterUnits="userSpaceOnUse" color-interpolation-filters="sRGB">
<feFlood flood-opacity="0" result="BackgroundImageFix"/>
<feColorMatrix in="SourceAlpha" type="matrix" values="0 0 0 0 0 0 0 0 0 0 0 0 0 0 0 0 0 0 127 0" result="hardAlpha"/>
<feOffset dy="5"/>
<feGaussianBlur stdDeviation="2"/>
<feComposite in2="hardAlpha" operator="out"/>
<feColorMatrix type="matrix" values="0 0 0 0 0 0 0 0 0 0 0 0 0 0 0 0 0 0 0.25 0"/>
<feBlend mode="normal" in2="BackgroundImageFix" result="effect1_dropShadow_7_2"/>
<feBlend mode="normal" in="SourceGraphic" in2="effect1_dropShadow_7_2" result="shape"/>
</filter>
<linearGradient id="paint0_linear_7_2" x1="4" y1="32" x2="227" y2="32" gradientUnits="userSpaceOnUse">
<stop stop-color="#6DAF5F"/>
<stop offset="1" stop-color="#03695E"/>
</linearGradient>
</defs>
</svg>
